<?xml version="1.0" encoding="utf-8"?>
<!-- Generator: Adobe Illustrator 16.0.0, SVG Export Plug-In . SVG Version: 6.00 Build 0)  -->
<!DOCTYPE svg PUBLIC "-//W3C//DTD SVG 1.1//EN" "http://www.w3.org/Graphics/SVG/1.1/DTD/svg11.dtd">
<svg version="1.1" id="Layer_1" xmlns="http://www.w3.org/2000/svg" xmlns:xlink="http://www.w3.org/1999/xlink" x="0px" y="0px"
	 width="200px" height="200px" viewBox="-44.973 -26.999 200 200" enable-background="new -44.973 -26.999 200 200"
	 xml:space="preserve">
<g id="New_Symbol_6">
</g>
<g>
	<g>
		<path fill="#FFC85C" d="M82.24,69.679l50.585,101.171H21.202L71.789,69.679C73.943,65.372,80.086,65.372,82.24,69.679z"/>
		<path fill="#F0AE2B" d="M77.014,70.225v100.625H21.202L72.097,69.065C73.32,66.612,77.014,67.486,77.014,70.225z"/>
	</g>
	<g>
		<path fill="#FFC85C" d="M49.249,58.268l56.292,112.583H-13.584c-1.796,0-2.965-1.891-2.162-3.496L38.797,58.268
			C40.95,53.961,47.095,53.961,49.249,58.268z"/>
		<path fill="#F0AE2B" d="M44.023,58.814v112.037h-58.349c-1.456,0-2.403-1.53-1.752-2.833L39.104,57.653
			C40.33,55.202,44.023,56.075,44.023,58.814z"/>
	</g>
	<g>
		<g>
			<path fill="#FFC85C" d="M114.727,95.984l29.962,59.921c3.431,6.868-1.562,14.945-9.239,14.945H66.845l37.433-74.866
				C106.429,91.68,112.574,91.68,114.727,95.984z"/>
		</g>
		<path fill="#F0AE2B" d="M109.502,96.534v74.316H66.845l37.739-75.479C105.808,92.921,109.502,93.792,109.502,96.534z"/>
	</g>
	<g>
		<path fill="#FFC85C" d="M16.995,95.984l37.432,74.866h-68.606c-7.676,0-12.669-8.077-9.236-14.945L6.542,95.984
			C8.697,91.68,14.842,91.68,16.995,95.984z"/>
		<path fill="#F0AE2B" d="M11.77,96.534v74.316h-25.949c-7.676,0-12.669-8.077-9.236-14.945L6.85,95.371
			C8.076,92.921,11.77,93.792,11.77,96.534z"/>
	</g>
</g>
<g>
	<g>
		<path fill="#F0AE2B" d="M138.798,82.858l-6.573,6.573L46.953,4.161c-1.816-1.816-1.816-4.758,0-6.575l0,0
			c1.814-1.814,4.757-1.814,6.573,0L138.798,82.858z"/>
		<path fill="#DB961D" d="M135.511,86.146l-3.286,3.285L46.953,4.161c-1.816-1.816-1.816-4.758,0-6.575l0,0L135.511,86.146z"/>
	</g>
	<g>
		<path fill="#068FF2" d="M64.515,15.149l-37.76,37.758c-0.627,0.629-1.683-0.033-1.382-0.869C34.94,25.369,56.2,6.835,56.2,6.835
			L64.515,15.149z"/>
		<path fill="#0088DB" d="M64.515,15.149l-37.76,37.758c-0.627,0.629-1.327,0.325-0.916-0.401
			c13.118-23.119,33.813-42.219,33.813-42.219L64.515,15.149z"/>
	</g>
	<g>
		<path fill="#068FF2" d="M65.541,14.121l37.76-37.758c0.627-0.628-0.032-1.685-0.869-1.384
			C75.763-15.454,57.227,5.807,57.227,5.807L65.541,14.121z"/>
		<path fill="#0088DB" d="M65.541,14.121l37.76-37.758c0.627-0.628,0.323-1.327-0.401-0.916
			C79.781-11.437,60.679,9.259,60.679,9.259L65.541,14.121z"/>
	</g>
	<g>
		
			<rect x="48.463" y="-0.903" transform="matrix(0.7071 -0.7071 0.7071 0.7071 9.9215 45.8563)" fill="#011625" width="23.709" height="23.708"/>
		
			<rect x="50.123" y="-1.59" transform="matrix(0.7071 -0.7071 0.7071 0.7071 12.5878 44.1638)" fill="#034A7D" width="18.966" height="16.953"/>
	</g>
</g>
<g>
	<g>
		<g>
			<rect x="38.056" y="165.503" fill="#DB961D" width="22" height="5.348"/>
			<rect x="40.103" y="160.151" fill="#F0AE2B" width="22.002" height="5.352"/>
		</g>
		<g>
			<rect x="33.45" y="149.449" fill="#DB961D" width="22.001" height="5.352"/>
			<rect x="31.4" y="154.801" fill="#F0AE2B" width="22.002" height="5.351"/>
		</g>
		<g>
			<rect x="18.629" y="160.151" fill="#DB961D" width="22.001" height="5.352"/>
			<rect x="16.579" y="165.503" fill="#F0AE2B" width="22.002" height="5.348"/>
		</g>
		<g>
			<rect x="65.497" y="165.503" fill="#DB961D" width="22.004" height="5.348"/>
			<rect x="67.548" y="160.151" fill="#F0AE2B" width="22.001" height="5.352"/>
			<rect x="60.056" y="154.801" fill="#FFC85C" width="22.003" height="5.351"/>
			<rect x="87.501" y="165.503" fill="#FFC85C" width="22.001" height="5.348"/>
		</g>
	</g>
	<g>
		<g>
			<rect x="-37.224" y="165.503" fill="#DB961D" width="22.001" height="5.348"/>
			<rect x="-31.62" y="160.151" fill="#FFC85C" width="22.001" height="5.352"/>
		</g>
		<g>
			<rect x="-15.222" y="165.503" fill="#DB961D" width="22.001" height="5.348"/>
			<rect x="-10.234" y="160.151" fill="#DB961D" width="22.003" height="5.352"/>
			<rect x="-15.222" y="154.801" fill="#FFC85C" width="22.001" height="5.351"/>
		</g>
	</g>
	<g>
		<g>
			<rect x="-17.839" y="149.449" fill="#DB961D" width="22.002" height="5.352"/>
			<rect x="-10.234" y="144.101" fill="#FFC85C" width="22.003" height="5.349"/>
		</g>
	</g>
</g>
</svg>
