<?xml version="1.0" encoding="utf-8"?>
<!-- Generator: Adobe Illustrator 16.0.0, SVG Export Plug-In . SVG Version: 6.00 Build 0)  -->
<!DOCTYPE svg PUBLIC "-//W3C//DTD SVG 1.1//EN" "http://www.w3.org/Graphics/SVG/1.1/DTD/svg11.dtd">
<svg version="1.1" id="Layer_1" xmlns="http://www.w3.org/2000/svg" xmlns:xlink="http://www.w3.org/1999/xlink" x="0px" y="0px"
	 width="195.945px" height="319.107px" viewBox="0 0 195.945 319.107" enable-background="new 0 0 195.945 319.107"
	 xml:space="preserve">
<g>
	<g>
		<g>
			<linearGradient id="SVGID_1_" gradientUnits="userSpaceOnUse" x1="96.0432" y1="195.8606" x2="195.2268" y2="195.8606">
				<stop  offset="0" style="stop-color:#27AAE1"/>
				<stop  offset="1" style="stop-color:#5FEEF9"/>
			</linearGradient>
			<polygon fill="url(#SVGID_1_)" points="145.631,138.596 96.043,167.227 96.043,224.492 145.631,253.125 195.227,224.492 
				195.227,167.227 			"/>
		</g>
		<g opacity="0.7">
			<linearGradient id="SVGID_2_" gradientUnits="userSpaceOnUse" x1="96.0862" y1="167.2004" x2="195.1819" y2="167.2004">
				<stop  offset="0" style="stop-color:#5FEEF9"/>
				<stop  offset="1" style="stop-color:#27AAE1"/>
			</linearGradient>
			<polygon fill="url(#SVGID_2_)" points="96.086,167.199 145.635,195.805 195.182,167.199 145.635,138.596 			"/>
			<linearGradient id="SVGID_3_" gradientUnits="userSpaceOnUse" x1="145.635" y1="210.1096" x2="195.1819" y2="210.1096">
				<stop  offset="0" style="stop-color:#5FEEF9"/>
				<stop  offset="1" style="stop-color:#27AAE1"/>
			</linearGradient>
			<polygon fill="url(#SVGID_3_)" points="195.182,167.199 145.635,195.805 145.635,253.02 195.182,224.414 			"/>
		</g>
	</g>
	<g>
		
			<radialGradient id="SVGID_4_" cx="35.5066" cy="262.6331" r="99.641" gradientTransform="matrix(0.9942 0.1079 -0.1079 0.9942 142.5031 -66.4695)" gradientUnits="userSpaceOnUse">
			<stop  offset="0" style="stop-color:#5FEEF9"/>
			<stop  offset="1" style="stop-color:#27AAE1;stop-opacity:0"/>
		</radialGradient>
		<path opacity="0.3" fill="url(#SVGID_4_)" d="M243.926,208.434c-5.912,54.492-54.875,93.871-109.371,87.959
			c-54.494-5.914-93.873-54.879-87.957-109.369c5.914-54.492,54.881-93.875,109.373-87.959
			C210.459,104.976,249.836,153.946,243.926,208.434z"/>
	</g>
</g>
<line fill="none" stroke="#FFFFFF" stroke-width="5" stroke-linecap="round" stroke-linejoin="round" stroke-miterlimit="10" x1="61.418" y1="49.758" x2="133.836" y2="90.508"/>
<g>
	<g>
		<g>
			<linearGradient id="SVGID_5_" gradientUnits="userSpaceOnUse" x1="94.4866" y1="78.3254" x2="161.6917" y2="78.3254">
				<stop  offset="0" style="stop-color:#27AAE1"/>
				<stop  offset="1" style="stop-color:#5FEEF9"/>
			</linearGradient>
			<polygon fill="url(#SVGID_5_)" points="128.086,39.524 94.487,58.924 94.487,97.727 128.086,117.127 161.692,97.727 
				161.692,58.924 			"/>
		</g>
		<g opacity="0.7">
			<linearGradient id="SVGID_6_" gradientUnits="userSpaceOnUse" x1="94.5139" y1="58.906" x2="161.6604" y2="58.906">
				<stop  offset="0" style="stop-color:#5FEEF9"/>
				<stop  offset="1" style="stop-color:#27AAE1"/>
			</linearGradient>
			<polygon fill="url(#SVGID_6_)" points="94.514,58.905 128.09,78.288 161.66,58.905 128.09,39.524 			"/>
			<linearGradient id="SVGID_7_" gradientUnits="userSpaceOnUse" x1="128.0901" y1="87.9807" x2="161.6604" y2="87.9807">
				<stop  offset="0" style="stop-color:#5FEEF9"/>
				<stop  offset="1" style="stop-color:#27AAE1"/>
			</linearGradient>
			<polygon fill="url(#SVGID_7_)" points="161.66,58.905 128.09,78.288 128.09,117.057 161.66,97.674 			"/>
		</g>
	</g>
	<g>
		
			<radialGradient id="SVGID_8_" cx="4.0647" cy="146.9788" r="67.5154" gradientTransform="matrix(0.9942 0.1079 -0.1079 0.9942 142.5031 -66.4695)" gradientUnits="userSpaceOnUse">
			<stop  offset="0" style="stop-color:#5FEEF9"/>
			<stop  offset="1" style="stop-color:#27AAE1;stop-opacity:0"/>
		</radialGradient>
		<circle opacity="0.3" fill="url(#SVGID_8_)" cx="127.836" cy="79.592" r="67.246"/>
	</g>
</g>
<g>
	<g>
		<g>
			<linearGradient id="SVGID_9_" gradientUnits="userSpaceOnUse" x1="8.7034" y1="165.1877" x2="47.928" y2="165.1877">
				<stop  offset="0" style="stop-color:#27AAE1"/>
				<stop  offset="1" style="stop-color:#5FEEF9"/>
			</linearGradient>
			<polygon fill="url(#SVGID_9_)" points="28.315,142.541 8.703,153.864 8.703,176.51 28.315,187.834 47.928,176.51 47.928,153.864 
							"/>
		</g>
		<g opacity="0.7">
			<linearGradient id="SVGID_10_" gradientUnits="userSpaceOnUse" x1="8.7209" y1="153.8538" x2="47.9104" y2="153.8538">
				<stop  offset="0" style="stop-color:#5FEEF9"/>
				<stop  offset="1" style="stop-color:#27AAE1"/>
			</linearGradient>
			<polygon fill="url(#SVGID_10_)" points="8.721,153.852 28.317,165.166 47.91,153.852 28.317,142.541 			"/>
			<linearGradient id="SVGID_11_" gradientUnits="userSpaceOnUse" x1="28.3167" y1="170.8225" x2="47.9104" y2="170.8225">
				<stop  offset="0" style="stop-color:#5FEEF9"/>
				<stop  offset="1" style="stop-color:#27AAE1"/>
			</linearGradient>
			<polygon fill="url(#SVGID_11_)" points="47.91,153.852 28.317,165.166 28.317,187.793 47.91,176.481 			"/>
		</g>
	</g>
	<g>
		
			<radialGradient id="SVGID_12_" cx="-86.9045" cy="243.4797" r="39.4049" gradientTransform="matrix(0.9942 0.1079 -0.1079 0.9942 142.5031 -66.4695)" gradientUnits="userSpaceOnUse">
			<stop  offset="0" style="stop-color:#5FEEF9"/>
			<stop  offset="1" style="stop-color:#27AAE1;stop-opacity:0"/>
		</radialGradient>
		<circle opacity="0.3" fill="url(#SVGID_12_)" cx="28.168" cy="165.927" r="39.249"/>
	</g>
</g>
<g>
	
		<line fill="none" stroke="#FFFFFF" stroke-width="5" stroke-linecap="round" stroke-linejoin="round" stroke-miterlimit="10" x1="111.836" y1="88.924" x2="66.42" y2="115.422"/>
</g>
<g>
	<g>
		<g>
			<linearGradient id="SVGID_13_" gradientUnits="userSpaceOnUse" x1="21.4866" y1="246.6594" x2="88.6917" y2="246.6594">
				<stop  offset="0" style="stop-color:#27AAE1"/>
				<stop  offset="1" style="stop-color:#5FEEF9"/>
			</linearGradient>
			<polygon fill="url(#SVGID_13_)" points="55.086,207.858 21.487,227.258 21.487,266.061 55.086,285.461 88.692,266.061 
				88.692,227.258 			"/>
		</g>
		<g opacity="0.7">
			<linearGradient id="SVGID_14_" gradientUnits="userSpaceOnUse" x1="21.5159" y1="227.2405" x2="88.6624" y2="227.2405">
				<stop  offset="0" style="stop-color:#5FEEF9"/>
				<stop  offset="1" style="stop-color:#27AAE1"/>
			</linearGradient>
			<polygon fill="url(#SVGID_14_)" points="21.516,227.239 55.09,246.623 88.662,227.239 55.09,207.858 			"/>
			<linearGradient id="SVGID_15_" gradientUnits="userSpaceOnUse" x1="55.0901" y1="256.3147" x2="88.6624" y2="256.3147">
				<stop  offset="0" style="stop-color:#5FEEF9"/>
				<stop  offset="1" style="stop-color:#27AAE1"/>
			</linearGradient>
			<polygon fill="url(#SVGID_15_)" points="88.662,227.239 55.09,246.623 55.09,285.391 88.662,266.008 			"/>
		</g>
	</g>
	<g>
		
			<radialGradient id="SVGID_16_" cx="-50.3445" cy="322.2014" r="67.5149" gradientTransform="matrix(0.9942 0.1079 -0.1079 0.9942 142.5031 -66.4695)" gradientUnits="userSpaceOnUse">
			<stop  offset="0" style="stop-color:#5FEEF9"/>
			<stop  offset="1" style="stop-color:#27AAE1;stop-opacity:0"/>
		</radialGradient>
		<path opacity="0.3" fill="url(#SVGID_16_)" d="M121.69,255.18c-4.006,36.922-37.182,63.605-74.107,59.6
			c-36.926-4.008-63.607-37.186-59.6-74.107c4.008-36.924,37.188-63.609,74.109-59.6C99.014,185.076,125.696,218.258,121.69,255.18z
			"/>
	</g>
</g>
<g>
	<g>
		<g>
			<linearGradient id="SVGID_17_" gradientUnits="userSpaceOnUse" x1="51.7034" y1="117.5198" x2="90.928" y2="117.5198">
				<stop  offset="0" style="stop-color:#27AAE1"/>
				<stop  offset="1" style="stop-color:#5FEEF9"/>
			</linearGradient>
			<polygon fill="url(#SVGID_17_)" points="71.315,94.873 51.703,106.197 51.703,128.843 71.315,140.166 90.928,128.843 
				90.928,106.197 			"/>
		</g>
		<g opacity="0.7">
			<linearGradient id="SVGID_18_" gradientUnits="userSpaceOnUse" x1="51.7209" y1="106.1858" x2="90.9104" y2="106.1858">
				<stop  offset="0" style="stop-color:#5FEEF9"/>
				<stop  offset="1" style="stop-color:#27AAE1"/>
			</linearGradient>
			<polygon fill="url(#SVGID_18_)" points="51.721,106.185 71.317,117.498 90.91,106.185 71.317,94.873 			"/>
			<linearGradient id="SVGID_19_" gradientUnits="userSpaceOnUse" x1="71.3167" y1="123.155" x2="90.9104" y2="123.155">
				<stop  offset="0" style="stop-color:#5FEEF9"/>
				<stop  offset="1" style="stop-color:#27AAE1"/>
			</linearGradient>
			<polygon fill="url(#SVGID_19_)" points="90.91,106.185 71.317,117.498 71.317,140.125 90.91,128.813 			"/>
		</g>
	</g>
	<g>
		
			<radialGradient id="SVGID_20_" cx="-49.3005" cy="191.4524" r="39.4051" gradientTransform="matrix(0.9942 0.1079 -0.1079 0.9942 142.5031 -66.4695)" gradientUnits="userSpaceOnUse">
			<stop  offset="0" style="stop-color:#5FEEF9"/>
			<stop  offset="1" style="stop-color:#27AAE1;stop-opacity:0"/>
		</radialGradient>
		<circle opacity="0.3" fill="url(#SVGID_20_)" cx="71.168" cy="118.259" r="39.249"/>
	</g>
</g>
</svg>
