<?xml version="1.0" encoding="utf-8"?>
<!-- Generator: Adobe Illustrator 16.0.0, SVG Export Plug-In . SVG Version: 6.00 Build 0)  -->
<!DOCTYPE svg PUBLIC "-//W3C//DTD SVG 1.1//EN" "http://www.w3.org/Graphics/SVG/1.1/DTD/svg11.dtd">
<svg version="1.1" id="Layer_1" xmlns="http://www.w3.org/2000/svg" xmlns:xlink="http://www.w3.org/1999/xlink" x="0px" y="0px"
	 width="256.271px" height="254.559px" viewBox="0 0 256.271 254.559" enable-background="new 0 0 256.271 254.559"
	 xml:space="preserve">
<g>
	<g>
		<g>
			<path fill="#EFB706" d="M96.995,212.85l0.636,11.321c-2.947,4.867-8.55,8.797-18.482,8.797
				c-16.15-0.066-26.682-8.991-26.682-24.005c0-14.711,10.163-23.874,26.868-23.874c7.004,0,12.625,1.628,16.354,3.562l0.128,11.286
				h-0.547c-2.397-8.636-8.044-12.074-15.276-12.079c-10.433,0-16.807,8.035-16.807,20.957c0,13.02,6.165,21.121,15.958,21.384
				c10.12-0.012,15.25-4.417,17.298-17.349H96.995z"/>
			<path fill="#EFB706" d="M155.771,209.026c0,14.779-10.078,23.938-25.874,23.938c-15.797,0-25.875-9.159-25.875-23.938
				s10.079-23.939,25.875-23.939C145.693,185.086,155.771,194.246,155.771,209.026z M144.98,209.026
				c0-13.063-5.813-21.173-15.083-21.173c-9.272,0-15.083,8.11-15.083,21.173c0,13.062,5.811,21.173,15.083,21.173
				C139.168,230.198,144.98,222.087,144.98,209.026z"/>
			<path fill="#EFB706" d="M182.761,186.005c7.973,0,15.643,3.241,15.643,12.403c0,5.534-3.302,11.754-10.767,12.497
				c2.777,0.91,5.25,3.522,6.709,5.827c0.2,0.319,4.146,6.573,6.623,9.663c2.836,3.61,4.71,4.936,8.138,4.987v0.66h-6.402
				c-7.194,0-12.428-1.558-15.446-6.818c-1.601-2.786-4.565-9.299-5.48-11.266c-1.277-2.744-2.747-4.138-4.452-4.432v-0.625h2.007
				c3.536-0.037,7.132-1.842,8.305-7.604c0.154-0.801,0.299-1.858,0.244-3.184c-0.263-6.291-3.438-9.104-7.758-9.21
				c-1.743-0.075-4.163-0.003-4.987-0.022v38.367c0.042,2.291,1.91,4.136,4.224,4.135h0.82l0.011,0.658h-19.997l0.011-0.658h0.832
				c2.29,0,4.151-1.828,4.209-4.104v-36.49c-0.042-2.29-1.911-4.135-4.206-4.131h-0.839l-0.01-0.654L182.761,186.005z"/>
			<path fill="#EFB706" d="M242.385,232.045h-34.053l0.012-0.657h0.831c2.302,0,4.169-1.846,4.214-4.136v-36.666
				c-0.149-2.193-1.973-3.926-4.205-3.926h-0.831l-0.011-0.654h25.214c2.835-0.025,6.628-0.682,7.851-1.197v11.5l-0.664-0.01v-0.773
				c0.008-3.957-2.479-6.543-6.424-6.709h-11.065v19.135h8.719c3.229-0.061,5.585-2.432,5.577-5.635v-0.57l0.643-0.009v15.199
				l-0.643-0.008v-0.569c0.008-3.176-2.311-5.534-5.494-5.634h-8.803v18.508h8.634c6.57,0,10.834-4.083,12.873-10.609h0.657
				L242.385,232.045z"/>
		</g>
	</g>
	<g>
		<path fill="#052670" d="M35.36,208.442c4.016-0.49,7.861-3.6,7.872-9.467c-0.011-7.813-6.914-10.939-16.164-10.961v-8.729h-3.13
			v8.727l-1.76,0.001v-8.728h-3.13v8.728L8.44,188.014l0.01,0.637h0.813c2.22-0.006,4.027,1.762,4.096,3.968v35.578
			c-0.064,2.21-1.873,3.984-4.1,3.984h-0.81l-0.01,0.64h10.608v7.752h3.13v-7.752h1.76v7.752h3.13v-7.752h1.631
			c10.835,0,18.038-4.258,18.02-12.494C46.737,213.516,41.838,209.028,35.36,208.442z M25.933,229.903l-2.966,0.001V190.77h1.829
			c4.917-0.01,8.183,2.58,8.193,9.009c-0.011,6.464-3.831,8.781-7.865,8.767l0.014,0.603c5.702-0.012,10.579,2.909,10.559,10.395
			C35.718,226.803,31.63,229.932,25.933,229.903z"/>
	</g>
</g>
</svg>
