<?xml version="1.0" encoding="utf-8"?>
<!-- Generator: Adobe Illustrator 16.0.0, SVG Export Plug-In . SVG Version: 6.00 Build 0)  -->
<!DOCTYPE svg PUBLIC "-//W3C//DTD SVG 1.1//EN" "http://www.w3.org/Graphics/SVG/1.1/DTD/svg11.dtd">
<svg version="1.1" id="Layer_1" xmlns="http://www.w3.org/2000/svg" xmlns:xlink="http://www.w3.org/1999/xlink" x="0px" y="0px"
	 width="195px" height="92.825px" viewBox="0 0 195 92.825" enable-background="new 0 0 195 92.825" xml:space="preserve">
<g display="none">
	<path display="inline" fill="#DE4126" d="M6.158,26.913c3.401,0,6.158,1.838,6.158,4.105s-2.757,4.105-6.158,4.105
		C2.756,35.123,0,33.285,0,31.018S2.756,26.913,6.158,26.913z"/>
	<path display="inline" fill="#DE4126" d="M102.632,92.825l2.054-16.421c0,0-46.391,0.411-47.211-26.684
		c0,0,4.516-26.685,55.42-28.737c0,0,37.771-2.463,51.316,22.579l28.736-4.105c0,0-30.379-52.546-121.105-26.684
		c0,0-2.909,1.026-6.158,0L47.21,4.562c0,0-9.75-2.053-8.21,6.158l22.579,12.315c0,0-0.171,6.501-6.158,4.105L14.368,8.667
		c0,0-8.724,1.369-4.105,8.21L47.21,31.246c0,0,2.395,8.724-8.21,6.158l-14.368-6.158c0,0-7.014-1.369-6.158,6.158l16.421,6.158
		C34.895,43.562,24.888,88.633,102.632,92.825z"/>
	<path display="inline" fill="#EF5D2A" d="M6.158,22.807c3.401,0,6.158,1.838,6.158,4.105s-2.757,4.105-6.158,4.105
		C2.756,31.018,0,29.18,0,26.913S2.756,22.807,6.158,22.807z"/>
	
		<linearGradient id="SVGID_1_" gradientUnits="userSpaceOnUse" x1="-22.4834" y1="49.438" x2="161.5498" y2="49.438" gradientTransform="matrix(1 0 0 -1 33.4502 93.6846)">
		<stop  offset="0" style="stop-color:#EF4343"/>
		<stop  offset="1" style="stop-color:#FFC741"/>
	</linearGradient>
	<path display="inline" fill="url(#SVGID_1_)" d="M104.686,88.493l2.051-16.422c0,0-46.388,0.41-47.209-26.685
		c0,0,4.516-26.684,55.421-28.737c0,0,37.77-2.463,51.315,22.579L195,35.123c0,0-30.379-52.546-121.105-26.684
		c0,0-2.908,1.026-6.158,0L49.263,0.228c0,0-9.75-2.052-8.21,6.158l22.579,12.316c0,0-0.172,6.5-6.158,4.105L16.421,4.333
		c0,0-8.724,1.369-4.105,8.21l36.947,14.369c0,0,2.395,8.724-8.21,6.158l-14.369-6.158c0,0-7.014-1.369-6.158,6.158l16.421,6.158
		C36.947,39.228,26.941,84.299,104.686,88.493z"/>
</g>
<g>
	<circle fill="#052670" cx="97.5" cy="47.097" r="45.728"/>
	<linearGradient id="SVGID_2_" gradientUnits="userSpaceOnUse" x1="60.958" y1="27.9854" x2="135.6348" y2="27.9854">
		<stop  offset="0" style="stop-color:#2484C6"/>
		<stop  offset="1" style="stop-color:#2484C6;stop-opacity:0"/>
	</linearGradient>
	<ellipse opacity="0.3" fill="url(#SVGID_2_)" cx="98.296" cy="27.985" rx="37.338" ry="26.314"/>
	<path fill="#F4DD08" d="M113.765,41.864c-1.614-1.358-3.603-2.323-5.827-2.831c-0.477-0.143-0.96-0.275-1.459-0.39v0.125
		c-0.232-0.031-0.469-0.059-0.705-0.08c4.35-0.531,8.517-3.899,8.529-10.256c-0.013-8.494-7.541-11.877-17.618-11.877l-20.077,0.001
		l0.01,0.689h0.881c2.405-0.005,4.364,1.911,4.438,4.3v17.913c2.458-0.743,5.063-1.146,7.763-1.146c0.894,0,1.776,0.046,2.648,0.131
		V19.542h1.981c5.329-0.01,8.864,2.796,8.877,9.761c-0.013,6.951-4.09,9.475-8.426,9.497c6.891,1.323,13.939,4.327,16.757,10.797
		c0.955,2.192,1.288,4.982,1.288,7.936c0,1.998-0.173,3.852-0.504,5.549c-0.626,7.139-6.614,12.739-13.915,12.739
		c-4.226,0-8.01-1.879-10.573-4.844c-0.011-0.014-0.022-0.026-0.034-0.039c-0.096-0.113-0.19-0.226-0.284-0.341
		c-0.08-0.101-0.16-0.202-0.238-0.304c-0.045-0.06-0.089-0.119-0.133-0.178c-0.082-0.113-0.164-0.227-0.243-0.342
		c-0.068-0.1-0.134-0.199-0.2-0.3c-0.036-0.056-0.072-0.111-0.107-0.167c-0.89-1.408-1.539-2.984-1.88-4.672
		c-0.343-1.487-0.525-3.118-0.525-4.888c0-9.539,5.079-15.469,13.389-15.469c0.579,0,1.141,0.03,1.694,0.084
		c0.375,0.666,0.595,1.444,0.592,2.279v0.881l0.648,0.011l0.002-5.155h-0.263c-1.022-0.088-2.085-0.144-3.199-0.144
		c-13.308,0-21.404,6.764-21.404,17.621c0,11.082,8.39,17.669,21.254,17.718c1.292,0,2.41,0.146,3.525,0h0.334
		c12.434-0.169,20.263-7.733,20.263-19.987C121.024,50.666,118.426,45.241,113.765,41.864z"/>
	<linearGradient id="SVGID_3_" gradientUnits="userSpaceOnUse" x1="117.9814" y1="68.9077" x2="70.7296" y2="21.6559">
		<stop  offset="0" style="stop-color:#BA7418"/>
		<stop  offset="0.6667" style="stop-color:#F9D876"/>
		<stop  offset="0.7299" style="stop-color:#F1CB6A"/>
		<stop  offset="0.8466" style="stop-color:#DCA94A"/>
		<stop  offset="1" style="stop-color:#BA7418"/>
	</linearGradient>
	<path fill="url(#SVGID_3_)" d="M113.182,41.668c-1.615-1.358-3.604-2.323-5.828-2.83c-0.477-0.143-0.961-0.275-1.459-0.39v0.125
		c-0.233-0.031-0.469-0.059-0.705-0.081c4.35-0.53,8.517-3.899,8.528-10.256c-0.012-8.495-7.541-11.877-17.617-11.877l-20.078,0.002
		l0.01,0.689h0.881c2.405-0.005,4.363,1.91,4.438,4.3v17.913c2.458-0.744,5.063-1.146,7.763-1.146c0.894,0,1.776,0.045,2.648,0.131
		V19.348h1.981c5.328-0.011,8.866,2.796,8.876,9.76c-0.011,6.951-4.09,9.476-8.425,9.497c6.892,1.324,13.938,4.328,16.756,10.798
		c0.955,2.192,1.29,4.981,1.29,7.936c0,1.997-0.174,3.852-0.506,5.548c-0.625,7.139-6.613,12.739-13.915,12.739
		c-4.227,0-8.01-1.879-10.573-4.844c-0.011-0.013-0.022-0.026-0.034-0.04c-0.096-0.111-0.191-0.226-0.284-0.341
		c-0.08-0.1-0.16-0.2-0.238-0.304c-0.045-0.059-0.09-0.118-0.134-0.178c-0.082-0.112-0.163-0.225-0.242-0.34
		c-0.068-0.1-0.134-0.2-0.201-0.302c-0.036-0.055-0.072-0.11-0.107-0.166c-0.89-1.408-1.539-2.984-1.88-4.673
		c-0.343-1.487-0.524-3.118-0.524-4.887c0-9.538,5.078-15.468,13.389-15.468c0.579,0,1.142,0.03,1.693,0.084
		c0.376,0.665,0.595,1.443,0.593,2.278v0.881l0.648,0.01l0.001-5.154h-0.263c-1.022-0.089-2.084-0.144-3.198-0.144
		c-13.308,0-21.403,6.763-21.403,17.621c0,11.081,8.39,17.669,21.254,17.718c1.292,0,2.41,0.146,3.524,0h0.335
		c12.433-0.169,20.262-7.734,20.262-19.987C120.439,50.469,117.842,45.046,113.182,41.668z"/>
	
		<radialGradient id="SVGID_4_" cx="56.769" cy="-12.1899" r="135.8252" gradientTransform="matrix(1.0627 0 0 1.0648 5.7627 16.9555)" gradientUnits="userSpaceOnUse">
		<stop  offset="0" style="stop-color:#FFF1D1"/>
		<stop  offset="0.0538" style="stop-color:#FFC94C"/>
		<stop  offset="0.1398" style="stop-color:#A2621E"/>
		<stop  offset="0.1632" style="stop-color:#965B1C"/>
		<stop  offset="0.25" style="stop-color:#6E4314"/>
		<stop  offset="0.3426" style="stop-color:#4C2E0E"/>
		<stop  offset="0.4407" style="stop-color:#301D09"/>
		<stop  offset="0.5462" style="stop-color:#1B1005"/>
		<stop  offset="0.6626" style="stop-color:#0C0702"/>
		<stop  offset="0.7983" style="stop-color:#030201"/>
		<stop  offset="1" style="stop-color:#000000"/>
	</radialGradient>
	<path opacity="0.5" fill="url(#SVGID_4_)" d="M137.637,24.665C129.785,10.759,114.9,1.368,97.818,1.368
		c-25.256,0-45.729,20.515-45.729,45.821c0,15.778,7.959,29.692,20.074,37.934C77.194,52.749,104.605,27.002,137.637,24.665z"/>
	<linearGradient id="SVGID_5_" gradientUnits="userSpaceOnUse" x1="97.2876" y1="16.8643" x2="97.2876" y2="77.9482">
		<stop  offset="0" style="stop-color:#F9ED32"/>
		<stop  offset="0.1576" style="stop-color:#3C2415;stop-opacity:0"/>
	</linearGradient>
	<path opacity="0.5" fill="url(#SVGID_5_)" d="M112.716,42.173c-1.614-1.358-3.603-2.323-5.827-2.831
		c-0.477-0.143-0.961-0.274-1.459-0.39v0.126c-0.232-0.032-0.469-0.059-0.705-0.081c4.35-0.531,8.517-3.899,8.529-10.256
		c-0.013-8.494-7.542-11.877-17.617-11.877l-20.078,0.001l0.011,0.689h0.881c2.405-0.006,4.363,1.91,4.437,4.301v17.912
		c2.458-0.743,5.063-1.146,7.764-1.146c0.894,0,1.776,0.046,2.648,0.132V19.852h1.981c5.329-0.011,8.865,2.795,8.876,9.761
		c-0.012,6.95-4.09,9.475-8.425,9.497c6.891,1.322,13.939,4.327,16.757,10.797c0.955,2.193,1.288,4.981,1.288,7.937
		c0,1.997-0.173,3.852-0.504,5.547c-0.626,7.14-6.614,12.74-13.916,12.74c-4.226,0-8.01-1.879-10.572-4.845
		c-0.011-0.013-0.023-0.025-0.034-0.039c-0.096-0.112-0.191-0.226-0.284-0.341c-0.08-0.1-0.16-0.2-0.238-0.304
		c-0.045-0.059-0.09-0.118-0.133-0.178c-0.082-0.112-0.163-0.226-0.243-0.341c-0.068-0.099-0.134-0.199-0.2-0.3
		c-0.036-0.056-0.072-0.111-0.107-0.168c-0.891-1.406-1.539-2.983-1.88-4.671c-0.343-1.487-0.525-3.119-0.525-4.888
		c0-9.538,5.079-15.469,13.389-15.469c0.579,0,1.142,0.03,1.694,0.084c0.375,0.666,0.594,1.444,0.592,2.279v0.881l0.648,0.011
		l0.002-5.156h-0.263c-1.022-0.088-2.085-0.143-3.199-0.143c-13.308,0-21.403,6.763-21.403,17.621
		c0,11.081,8.39,17.67,21.254,17.718c1.292,0,2.41,0.146,3.525,0h0.333c12.433-0.169,20.264-7.734,20.264-19.987
		C119.976,50.974,117.377,45.55,112.716,42.173z"/>
	<linearGradient id="SVGID_6_" gradientUnits="userSpaceOnUse" x1="97.7515" y1="16.8643" x2="97.7515" y2="77.9482">
		<stop  offset="0.0049" style="stop-color:#3C2415;stop-opacity:0"/>
		<stop  offset="0.3793" style="stop-color:#3C2415;stop-opacity:0.3793"/>
		<stop  offset="0.5764" style="stop-color:#F9ED32"/>
		<stop  offset="0.734" style="stop-color:#D7DF23;stop-opacity:0.266"/>
		<stop  offset="0.9754" style="stop-color:#3C2415;stop-opacity:0"/>
	</linearGradient>
	<path opacity="0.5" fill="url(#SVGID_6_)" d="M113.182,42.173c-1.615-1.358-3.604-2.323-5.828-2.831
		c-0.477-0.143-0.961-0.274-1.459-0.39v0.126c-0.233-0.032-0.469-0.059-0.705-0.081c4.35-0.531,8.517-3.899,8.528-10.256
		c-0.012-8.494-7.541-11.877-17.617-11.877l-20.078,0.001l0.01,0.689h0.881c2.405-0.006,4.363,1.91,4.438,4.301v17.912
		c2.458-0.743,5.063-1.146,7.763-1.146c0.894,0,1.776,0.046,2.648,0.132V19.852h1.981c5.328-0.011,8.866,2.795,8.876,9.761
		c-0.011,6.95-4.09,9.475-8.425,9.497c6.892,1.322,13.938,4.327,16.756,10.797c0.955,2.193,1.29,4.981,1.29,7.937
		c0,1.997-0.174,3.852-0.506,5.547c-0.625,7.14-6.613,12.74-13.915,12.74c-4.227,0-8.01-1.879-10.573-4.845
		c-0.011-0.013-0.022-0.025-0.034-0.039c-0.096-0.112-0.191-0.226-0.284-0.341c-0.08-0.1-0.16-0.2-0.238-0.304
		c-0.045-0.059-0.09-0.118-0.134-0.178c-0.082-0.112-0.163-0.226-0.242-0.341c-0.068-0.099-0.134-0.199-0.201-0.3
		c-0.036-0.056-0.072-0.111-0.107-0.168c-0.89-1.406-1.539-2.983-1.88-4.671c-0.343-1.487-0.524-3.119-0.524-4.888
		c0-9.538,5.078-15.469,13.389-15.469c0.579,0,1.142,0.03,1.693,0.084c0.376,0.666,0.595,1.444,0.593,2.279v0.881l0.648,0.011
		l0.001-5.156h-0.263c-1.022-0.088-2.084-0.143-3.198-0.143c-13.308,0-21.403,6.763-21.403,17.621
		c0,11.081,8.39,17.67,21.254,17.718c1.292,0,2.41,0.146,3.524,0h0.335c12.433-0.169,20.262-7.734,20.262-19.987
		C120.439,50.974,117.842,45.55,113.182,42.173z"/>
</g>
</svg>
