<?xml version="1.0" encoding="utf-8"?>
<!-- Generator: Adobe Illustrator 16.0.0, SVG Export Plug-In . SVG Version: 6.00 Build 0)  -->
<!DOCTYPE svg PUBLIC "-//W3C//DTD SVG 1.1//EN" "http://www.w3.org/Graphics/SVG/1.1/DTD/svg11.dtd">
<svg version="1.1" id="Layer_1" xmlns="http://www.w3.org/2000/svg" xmlns:xlink="http://www.w3.org/1999/xlink" x="0px" y="0px"
	 width="162.48px" height="116.16px" viewBox="0 0 162.48 116.16" enable-background="new 0 0 162.48 116.16" xml:space="preserve">
<path fill="none" d="M37.74,47.245c1.606,0.403,2.365,1.518,1.695,2.487c-0.671,0.971-2.518,1.431-4.125,1.026
	c-1.606-0.403-2.366-1.518-1.695-2.487C34.286,47.3,36.132,46.84,37.74,47.245z"/>
<g display="none">
	
		<image display="inline" overflow="visible" enable-background="new    " width="683" height="492" xlink:href="C41C41EE.png"  transform="matrix(0.2379 0 0 0.2361 -2.441406e-004 -4.882813e-004)">
	</image>
</g>
<path fill="none" d="M37.74,48.245c1.606,0.403,2.365,1.518,1.695,2.487c-0.671,0.971-2.518,1.431-4.125,1.026
	c-1.606-0.403-2.366-1.518-1.695-2.487C34.286,48.3,36.132,47.84,37.74,48.245z"/>
</svg>
