<?xml version="1.0" encoding="utf-8"?>
<!-- Generator: Adobe Illustrator 16.0.0, SVG Export Plug-In . SVG Version: 6.00 Build 0)  -->
<!DOCTYPE svg PUBLIC "-//W3C//DTD SVG 1.1//EN" "http://www.w3.org/Graphics/SVG/1.1/DTD/svg11.dtd">
<svg version="1.1" id="Layer_1" xmlns="http://www.w3.org/2000/svg" xmlns:xlink="http://www.w3.org/1999/xlink" x="0px" y="0px"
	 width="63.299px" height="17.691px" viewBox="0 0 63.299 17.691" enable-background="new 0 0 63.299 17.691" xml:space="preserve">
<g id="Layer_2_1_">
</g>
<g id="Layer_2">
</g>
<g>
	<g>
		<g>
			<path fill="#EFB706" d="M25.466,9.449l0.131,2.339c-0.608,1.006-1.766,1.816-3.817,1.816c-3.336-0.015-5.511-1.857-5.511-4.959
				c0-3.038,2.099-4.932,5.55-4.932c1.447,0,2.607,0.336,3.378,0.735l0.026,2.332H25.11c-0.495-1.784-1.661-2.494-3.155-2.495
				c-2.155,0-3.472,1.66-3.472,4.329c0,2.688,1.273,4.361,3.297,4.416c2.09-0.002,3.15-0.912,3.573-3.583L25.466,9.449L25.466,9.449
				z"/>
			<path fill="#EFB706" d="M37.606,8.659c0,3.054-2.082,4.943-5.346,4.943c-3.263,0-5.345-1.892-5.345-4.943
				c0-3.054,2.082-4.945,5.345-4.945C35.524,3.714,37.606,5.605,37.606,8.659z M35.379,8.659c0-2.698-1.2-4.373-3.114-4.373
				c-1.917,0-3.116,1.675-3.116,4.373c0,2.697,1.2,4.373,3.116,4.373C34.179,13.032,35.379,11.356,35.379,8.659z"/>
			<path fill="#EFB706" d="M43.183,3.904c1.646,0,3.229,0.67,3.229,2.562c0,1.145-0.683,2.43-2.224,2.582
				c0.572,0.188,1.084,0.729,1.386,1.203c0.042,0.065,0.854,1.357,1.368,1.996c0.586,0.746,0.973,1.021,1.681,1.031v0.136h-1.322
				c-1.485,0-2.565-0.321-3.188-1.408c-0.33-0.575-0.943-1.921-1.133-2.326c-0.265-0.565-0.566-0.854-0.92-0.915V8.634h0.416
				c0.729-0.008,1.474-0.381,1.715-1.57c0.031-0.166,0.062-0.384,0.051-0.657c-0.055-1.301-0.71-1.882-1.604-1.902
				c-0.359-0.016-0.859,0-1.029-0.005v7.925c0.009,0.475,0.395,0.854,0.871,0.854h0.17l0.002,0.137h-4.129l0.002-0.137h0.17
				c0.475,0,0.856-0.378,0.871-0.848V4.892c-0.01-0.474-0.396-0.854-0.869-0.854h-0.174l-0.002-0.134H43.183z"/>
			<path fill="#EFB706" d="M55.498,13.414h-7.033l0.002-0.135h0.173c0.476,0,0.86-0.383,0.87-0.854V4.849
				c-0.03-0.453-0.407-0.812-0.868-0.812h-0.173l-0.002-0.135h5.207c0.586-0.006,1.369-0.143,1.623-0.247v2.375L55.159,6.03V5.87
				c0.002-0.817-0.512-1.353-1.327-1.387h-2.285v3.953h1.802c0.668-0.015,1.152-0.503,1.15-1.165V7.155l0.134-0.001v3.14
				l-0.134-0.002v-0.117c0.002-0.656-0.477-1.144-1.135-1.164h-1.817v3.823h1.782c1.355,0,2.238-0.843,2.658-2.19h0.137
				L55.498,13.414z"/>
		</g>
	</g>
</g>
<g>
	<path fill="#FFFFFF" d="M12.735,8.538c0.83-0.101,1.624-0.742,1.626-1.955c-0.003-1.614-1.428-2.26-3.339-2.265V2.515h-0.646v1.802
		h-0.363V2.515H9.366v1.803H7.175L7.177,4.45h0.168c0.458-0.001,0.832,0.363,0.846,0.819v7.35c-0.014,0.457-0.387,0.822-0.847,0.822
		H7.177l-0.002,0.133h2.191v1.602h0.647v-1.602h0.363v1.602h0.646v-1.602h0.337c2.238,0,3.726-0.879,3.722-2.58
		C15.085,9.587,14.073,8.659,12.735,8.538z M10.788,12.969l-0.612,0.002V4.887h0.377c1.016-0.003,1.69,0.533,1.693,1.86
		c-0.003,1.336-0.792,1.813-1.625,1.812l0.003,0.124c1.178-0.002,2.185,0.602,2.181,2.146
		C12.809,12.331,11.964,12.976,10.788,12.969z"/>
</g>
</svg>
